NotoSansHebrew-Regular.ufo
<glyph name="etnahtaleft-hb" format="2">
  <unicode hex="0591"/>
  <note>
uni0591
</note>
  <anchor x="137" y="0" name="_bottomleft"/>
  <outline>
    <contour>
      <point x="50" y="-237" type="line"/>
      <point x="96" y="-237" type="line"/>
      <point x="96" y="-215" type="line" smooth="yes"/>
      <point x="96" y="-182"/>
      <point x="107" y="-169"/>
      <point x="138" y="-169" type="curve" smooth="yes"/>
      <point x="167" y="-169"/>
      <point x="178" y="-182"/>
      <point x="178" y="-215" type="curve" smooth="yes"/>
      <point x="178" y="-237" type="line"/>
      <point x="225" y="-237" type="line"/>
      <point x="225" y="-214" type="line" smooth="yes"/>
      <point x="225" y="-160"/>
      <point x="205" y="-134"/>
      <point x="161" y="-127" type="curve"/>
      <point x="161" y="-84" type="line"/>
      <point x="113" y="-84" type="line"/>
      <point x="113" y="-127" type="line"/>
      <point x="71" y="-134"/>
      <point x="50" y="-160"/>
      <point x="50" y="-214" type="curve" smooth="yes"/>
    </contour>
  </outline>
</glyph>
<glyph name="segolta-hb" format="2">
  <unicode hex="0592"/>
  <note>
uni0592
</note>
  <anchor x="206" y="536" name="_topleft"/>
  <outline>
    <contour>
      <point x="144" y="767" type="curve" smooth="yes"/>
      <point x="164" y="767"/>
      <point x="178" y="779"/>
      <point x="178" y="804" type="curve" smooth="yes"/>
      <point x="178" y="830"/>
      <point x="164" y="842"/>
      <point x="144" y="842" type="curve" smooth="yes"/>
      <point x="124" y="842"/>
      <point x="110" y="831"/>
      <point x="110" y="804" type="curve" smooth="yes"/>
      <point x="110" y="779"/>
      <point x="124" y="767"/>
    </contour>
    <contour>
      <point x="83" y="660" type="curve" smooth="yes"/>
      <point x="103" y="660"/>
      <point x="117" y="672"/>
      <point x="117" y="697" type="curve" smooth="yes"/>
      <point x="117" y="723"/>
      <point x="103" y="735"/>
      <point x="83" y="735" type="curve" smooth="yes"/>
      <point x="63" y="735"/>
      <point x="50" y="724"/>
      <point x="50" y="697" type="curve" smooth="yes"/>
      <point x="50" y="672"/>
      <point x="63" y="660"/>
    </contour>
    <contour>
      <point x="205" y="660" type="curve" smooth="yes"/>
      <point x="225" y="660"/>
      <point x="239" y="672"/>
      <point x="239" y="697" type="curve" smooth="yes"/>
      <point x="239" y="723"/>
      <point x="225" y="735"/>
      <point x="205" y="735" type="curve" smooth="yes"/>
      <point x="185" y="735"/>
      <point x="172" y="724"/>
      <point x="172" y="697" type="curve" smooth="yes"/>
      <point x="172" y="672"/>
      <point x="185" y="660"/>
    </contour>
  </outline>
</glyph>
<glyph name="shalshelet-hb" format="2">
  <unicode hex="0593"/>
  <note>
uni0593
</note>
  <anchor x="122" y="536" name="_top"/>
  <outline>
    <contour>
      <point x="50" y="659" type="line"/>
      <point x="108" y="659" type="line"/>
      <point x="194" y="701" type="line"/>
      <point x="118" y="743" type="line"/>
      <point x="194" y="785" type="line"/>
      <point x="118" y="827" type="line"/>
      <point x="194" y="869" type="line"/>
      <point x="126" y="869" type="line"/>
      <point x="50" y="827" type="line"/>
      <point x="126" y="785" type="line"/>
      <point x="50" y="743" type="line"/>
      <point x="126" y="701" type="line"/>
    </contour>
  </outline>
</glyph>
<glyph name="zaqefqatan-hb" format="2">
  <unicode hex="0594"/>
  <note>
uni0594
</note>
  <anchor x="84" y="536" name="_top"/>
  <outline>
    <contour>
      <point x="85" y="767" type="curve" smooth="yes"/>
      <point x="105" y="767"/>
      <point x="119" y="779"/>
      <point x="119" y="805" type="curve" smooth="yes"/>
      <point x="119" y="830"/>
      <point x="105" y="842"/>
      <point x="85" y="842" type="curve" smooth="yes"/>
      <point x="65" y="842"/>
      <point x="52" y="830"/>
      <point x="52" y="805" type="curve"/>
      <point x="52" y="778"/>
      <point x="65" y="767"/>
    </contour>
    <contour>
      <point x="84" y="660" type="curve" smooth="yes"/>
      <point x="104" y="660"/>
      <point x="118" y="672"/>
      <point x="118" y="698" type="curve" smooth="yes"/>
      <point x="118" y="723"/>
      <point x="104" y="735"/>
      <point x="84" y="735" type="curve" smooth="yes"/>
      <point x="64" y="735"/>
      <point x="50" y="723"/>
      <point x="50" y="698" type="curve"/>
      <point x="50" y="671"/>
      <point x="64" y="660"/>
    </contour>
  </outline>
</glyph>
<glyph name="zaqefgadol-hb" format="2">
  <unicode hex="0595"/>
  <note>
uni0595
</note>
  <anchor x="129" y="536" name="_top"/>
  <outline>
    <contour>
      <point x="50" y="660" type="line"/>
      <point x="97" y="660" type="line"/>
      <point x="97" y="842" type="line"/>
      <point x="50" y="842" type="line"/>
    </contour>
    <contour>
      <point x="174" y="660" type="curve" smooth="yes"/>
      <point x="194" y="660"/>
      <point x="208" y="672"/>
      <point x="208" y="698" type="curve" smooth="yes"/>
      <point x="208" y="723"/>
      <point x="194" y="735"/>
      <point x="174" y="735" type="curve" smooth="yes"/>
      <point x="154" y="735"/>
      <point x="140" y="723"/>
      <point x="140" y="698" type="curve" smooth="yes"/>
      <point x="140" y="671"/>
      <point x="154" y="660"/>
    </contour>
    <contour>
      <point x="175" y="767" type="curve" smooth="yes"/>
      <point x="195" y="767"/>
      <point x="209" y="779"/>
      <point x="209" y="805" type="curve" smooth="yes"/>
      <point x="209" y="830"/>
      <point x="195" y="842"/>
      <point x="175" y="842" type="curve" smooth="yes"/>
      <point x="155" y="842"/>
      <point x="142" y="830"/>
      <point x="142" y="805" type="curve" smooth="yes"/>
      <point x="142" y="778"/>
      <point x="155" y="767"/>
    </contour>
  </outline>
</glyph>
<glyph name="zarqa-hb" format="2">
  <unicode hex="0598"/>
  <note>
uni0598
</note>
  <anchor x="188" y="536" name="_top"/>
  <outline>
    <contour>
      <point x="100" y="650" type="curve"/>
      <point x="113" y="683" type="line"/>
      <point x="95" y="691"/>
      <point x="86" y="703"/>
      <point x="86" y="723" type="curve" smooth="yes"/>
      <point x="86" y="745"/>
      <point x="99" y="758"/>
      <point x="116" y="758" type="curve" smooth="yes"/>
      <point x="137" y="758"/>
      <point x="147" y="748"/>
      <point x="175" y="709" type="curve" smooth="yes"/>
      <point x="207" y="665"/>
      <point x="229" y="651"/>
      <point x="260" y="651" type="curve" smooth="yes"/>
      <point x="298" y="651"/>
      <point x="326" y="678"/>
      <point x="326" y="719" type="curve" smooth="yes"/>
      <point x="326" y="755"/>
      <point x="309" y="779"/>
      <point x="276" y="792" type="curve"/>
      <point x="263" y="758" type="line"/>
      <point x="281" y="751"/>
      <point x="290" y="739"/>
      <point x="290" y="719" type="curve" smooth="yes"/>
      <point x="290" y="696"/>
      <point x="277" y="684"/>
      <point x="260" y="684" type="curve" smooth="yes"/>
      <point x="240" y="684"/>
      <point x="226" y="697"/>
      <point x="201" y="732" type="curve" smooth="yes"/>
      <point x="168" y="777"/>
      <point x="147" y="791"/>
      <point x="118" y="791" type="curve" smooth="yes"/>
      <point x="78" y="791"/>
      <point x="50" y="763"/>
      <point x="50" y="723" type="curve" smooth="yes"/>
      <point x="50" y="686"/>
      <point x="67" y="661"/>
    </contour>
  </outline>
</glyph>
<glyph name="pashta-hb" format="2">
  <unicode hex="0599"/>
  <note>
uni0599
</note>
  <anchor x="200" y="536" name="_topleft"/>
  <outline>
    <contour>
      <point x="150" y="650" type="curve"/>
      <point x="200" y="650" type="line"/>
      <point x="200" y="740"/>
      <point x="144" y="791"/>
      <point x="50" y="791" type="curve"/>
      <point x="50" y="741" type="line"/>
      <point x="114" y="741"/>
      <point x="150" y="707"/>
    </contour>
  </outline>
</glyph>
<glyph name="yetiv-hb" format="2">
  <unicode hex="059A"/>
  <note>
uni059A
</note>
  <anchor x="166" y="0" name="_bottomleft"/>
  <outline>
    <contour>
      <point x="133" y="-250" type="line"/>
      <point x="199" y="-250" type="line"/>
      <point x="116" y="-167" type="line"/>
      <point x="199" y="-84" type="line"/>
      <point x="133" y="-84" type="line"/>
      <point x="50" y="-167" type="line"/>
    </contour>
  </outline>
</glyph>
<glyph name="tevirleft-hb" format="2">
  <unicode hex="059B"/>
  <note>
uni059B
</note>
  <anchor x="193" y="0" name="_bottomleft"/>
  <outline>
    <contour>
      <point x="67" y="-224" type="line"/>
      <point x="164" y="-224"/>
      <point x="218" y="-171"/>
      <point x="218" y="-84" type="curve"/>
      <point x="168" y="-84" type="line"/>
      <point x="168" y="-141"/>
      <point x="129" y="-175"/>
      <point x="67" y="-175" type="curve"/>
    </contour>
    <contour>
      <point x="86" y="-127" type="curve" smooth="yes"/>
      <point x="107" y="-127"/>
      <point x="123" y="-111"/>
      <point x="123" y="-90" type="curve" smooth="yes"/>
      <point x="123" y="-69"/>
      <point x="107" y="-53"/>
      <point x="86" y="-53" type="curve" smooth="yes"/>
      <point x="66" y="-53"/>
      <point x="50" y="-70"/>
      <point x="50" y="-90" type="curve" smooth="yes"/>
      <point x="50" y="-111"/>
      <point x="66" y="-127"/>
    </contour>
  </outline>
</glyph>
<glyph name="gereshaccent-hb" format="2">
  <unicode hex="059C"/>
  <note>
uni059C
</note>
  <anchor x="75" y="536" name="_topleft"/>
  <outline>
    <contour>
      <point x="50" y="650" type="curve"/>
      <point x="100" y="650" type="line"/>
      <point x="100" y="708"/>
      <point x="138" y="741"/>
      <point x="200" y="741" type="curve"/>
      <point x="200" y="791" type="line"/>
      <point x="106" y="791"/>
      <point x="50" y="739"/>
    </contour>
  </outline>
</glyph>
<glyph name="gereshmuqdam-hb" format="2">
  <unicode hex="059D"/>
  <note>
uni059D
</note>
  <anchor x="150" y="536" name="_top"/>
  <outline>
    <contour>
      <point x="50" y="650" type="curve"/>
      <point x="100" y="650" type="line"/>
      <point x="100" y="708"/>
      <point x="138" y="741"/>
      <point x="200" y="741" type="curve"/>
      <point x="200" y="791" type="line"/>
      <point x="106" y="791"/>
      <point x="50" y="739"/>
    </contour>
  </outline>
</glyph>
<glyph name="qarneypara-hb" format="2">
  <unicode hex="059F"/>
  <note>
uni059F
</note>
  <anchor x="277" y="536" name="_top"/>
  <outline>
    <contour>
      <point x="326" y="650" type="line"/>
      <point x="364" y="688" type="line"/>
      <point x="378" y="681"/>
      <point x="393" y="678"/>
      <point x="410" y="678" type="curve" smooth="yes"/>
      <point x="463" y="678"/>
      <point x="504" y="719"/>
      <point x="504" y="771" type="curve" smooth="yes"/>
      <point x="504" y="824"/>
      <point x="462" y="864"/>
      <point x="410" y="864" type="curve" smooth="yes"/>
      <point x="358" y="864"/>
      <point x="316" y="823"/>
      <point x="316" y="771" type="curve" smooth="yes"/>
      <point x="316" y="754"/>
      <point x="321" y="738"/>
      <point x="329" y="725" type="curve"/>
      <point x="290" y="686" type="line"/>
    </contour>
    <contour>
      <point x="228" y="650" type="line"/>
      <point x="264" y="686" type="line"/>
      <point x="225" y="725" type="line"/>
      <point x="233" y="738"/>
      <point x="238" y="754"/>
      <point x="238" y="771" type="curve" smooth="yes"/>
      <point x="238" y="823"/>
      <point x="196" y="864"/>
      <point x="144" y="864" type="curve" smooth="yes"/>
      <point x="92" y="864"/>
      <point x="50" y="823"/>
      <point x="50" y="771" type="curve" smooth="yes"/>
      <point x="50" y="719"/>
      <point x="91" y="678"/>
      <point x="144" y="678" type="curve" smooth="yes"/>
      <point x="161" y="678"/>
      <point x="176" y="681"/>
      <point x="190" y="688" type="curve"/>
    </contour>
    <contour>
      <point x="145" y="724" type="curve" smooth="yes"/>
      <point x="119" y="724"/>
      <point x="97" y="746"/>
      <point x="97" y="771" type="curve" smooth="yes"/>
      <point x="97" y="796"/>
      <point x="120" y="818"/>
      <point x="145" y="818" type="curve" smooth="yes"/>
      <point x="169" y="818"/>
      <point x="191" y="797"/>
      <point x="191" y="771" type="curve" smooth="yes"/>
      <point x="191" y="745"/>
      <point x="170" y="724"/>
    </contour>
    <contour>
      <point x="409" y="724" type="curve" smooth="yes"/>
      <point x="384" y="724"/>
      <point x="363" y="745"/>
      <point x="363" y="771" type="curve" smooth="yes"/>
      <point x="363" y="797"/>
      <point x="385" y="818"/>
      <point x="409" y="818" type="curve" smooth="yes"/>
      <point x="434" y="818"/>
      <point x="457" y="796"/>
      <point x="457" y="771" type="curve" smooth="yes"/>
      <point x="457" y="746"/>
      <point x="435" y="724"/>
    </contour>
  </outline>
</glyph>
<glyph name="telishagedola-hb" format="2">
  <unicode hex="05A0"/>
  <note>
uni05A0
</note>
  <anchor x="157" y="536" name="_top"/>
  <outline>
    <contour>
      <point x="86" y="650" type="line"/>
      <point x="124" y="688" type="line"/>
      <point x="138" y="681"/>
      <point x="153" y="678"/>
      <point x="170" y="678" type="curve" smooth="yes"/>
      <point x="223" y="678"/>
      <point x="264" y="719"/>
      <point x="264" y="771" type="curve" smooth="yes"/>
      <point x="264" y="824"/>
      <point x="222" y="864"/>
      <point x="170" y="864" type="curve" smooth="yes"/>
      <point x="118" y="864"/>
      <point x="76" y="823"/>
      <point x="76" y="771" type="curve" smooth="yes"/>
      <point x="76" y="754"/>
      <point x="81" y="738"/>
      <point x="89" y="725" type="curve"/>
      <point x="50" y="686" type="line"/>
    </contour>
    <contour>
      <point x="169" y="724" type="curve" smooth="yes"/>
      <point x="144" y="724"/>
      <point x="123" y="745"/>
      <point x="123" y="771" type="curve" smooth="yes"/>
      <point x="123" y="797"/>
      <point x="145" y="818"/>
      <point x="169" y="818" type="curve" smooth="yes"/>
      <point x="194" y="818"/>
      <point x="217" y="796"/>
      <point x="217" y="771" type="curve" smooth="yes"/>
      <point x="217" y="746"/>
      <point x="195" y="724"/>
    </contour>
  </outline>
</glyph>
<glyph name="atnahhafukh-hb" format="2">
  <unicode hex="05A2"/>
  <note>
uni05A2
</note>
  <anchor x="138" y="0" name="_bottomleft"/>
  <outline>
    <contour>
      <point x="113" y="-237" type="line"/>
      <point x="161" y="-237" type="line"/>
      <point x="161" y="-195" type="line"/>
      <point x="203" y="-188"/>
      <point x="225" y="-162"/>
      <point x="225" y="-107" type="curve" smooth="yes"/>
      <point x="225" y="-84" type="line"/>
      <point x="178" y="-84" type="line"/>
      <point x="178" y="-107" type="line" smooth="yes"/>
      <point x="178" y="-139"/>
      <point x="167" y="-153"/>
      <point x="138" y="-153" type="curve" smooth="yes"/>
      <point x="107" y="-153"/>
      <point x="96" y="-139"/>
      <point x="96" y="-107" type="curve" smooth="yes"/>
      <point x="96" y="-84" type="line"/>
      <point x="50" y="-84" type="line"/>
      <point x="50" y="-107" type="line" smooth="yes"/>
      <point x="50" y="-162"/>
      <point x="73" y="-189"/>
      <point x="113" y="-195" type="curve"/>
    </contour>
  </outline>
</glyph>
<glyph name="mahapakhleft-hb" format="2">
  <unicode hex="05A4"/>
  <note>
uni05A4
</note>
  <anchor x="167" y="0" name="_bottomleft"/>
  <outline>
    <contour>
      <point x="133" y="-250" type="line"/>
      <point x="200" y="-250" type="line"/>
      <point x="117" y="-167" type="line"/>
      <point x="200" y="-84" type="line"/>
      <point x="133" y="-84" type="line"/>
      <point x="50" y="-167" type="line"/>
    </contour>
  </outline>
</glyph>
<glyph name="merkhaleft-hb" format="2">
  <unicode hex="05A5"/>
  <note>
uni05A5
</note>
  <anchor x="200" y="0" name="_bottomleft"/>
  <outline>
    <contour>
      <point x="50" y="-224" type="line"/>
      <point x="146" y="-224"/>
      <point x="200" y="-172"/>
      <point x="200" y="-84" type="curve"/>
      <point x="150" y="-84" type="line"/>
      <point x="150" y="-140"/>
      <point x="112" y="-175"/>
      <point x="50" y="-175" type="curve"/>
    </contour>
  </outline>
</glyph>
<glyph name="merkhakefulaleft-hb" format="2">
  <unicode hex="05A6"/>
  <note>
uni05A6
</note>
  <anchor x="251" y="0" name="_bottomleft"/>
  <outline>
    <contour>
      <point x="201" y="-224" type="line"/>
      <point x="298" y="-224"/>
      <point x="352" y="-171"/>
      <point x="352" y="-84" type="curve"/>
      <point x="301" y="-84" type="line"/>
      <point x="301" y="-140"/>
      <point x="264" y="-175"/>
      <point x="201" y="-175" type="curve"/>
    </contour>
    <contour>
      <point x="50" y="-224" type="line"/>
      <point x="146" y="-224"/>
      <point x="201" y="-172"/>
      <point x="201" y="-84" type="curve"/>
      <point x="150" y="-84" type="line"/>
      <point x="150" y="-140"/>
      <point x="113" y="-175"/>
      <point x="50" y="-175" type="curve"/>
    </contour>
  </outline>
</glyph>
<glyph name="qadma-hb" format="2">
  <unicode hex="05A8"/>
  <note>
uni05A8
</note>
  <anchor x="175" y="536" name="_topleft"/>
  <outline>
    <contour>
      <point x="150" y="650" type="curve"/>
      <point x="200" y="650" type="line"/>
      <point x="200" y="740"/>
      <point x="144" y="791"/>
      <point x="50" y="791" type="curve"/>
      <point x="50" y="741" type="line"/>
      <point x="114" y="741"/>
      <point x="150" y="707"/>
    </contour>
  </outline>
</glyph>
<glyph name="iluy-hb" format="2">
  <unicode hex="05AC"/>
  <note>
uni05AC
</note>
  <anchor x="125" y="536" name="_top"/>
  <outline>
    <contour>
      <point x="50" y="650" type="line"/>
      <point x="200" y="650" type="line"/>
      <point x="200" y="794" type="line"/>
      <point x="150" y="794" type="line"/>
      <point x="150" y="699" type="line"/>
      <point x="50" y="699" type="line"/>
    </contour>
  </outline>
</glyph>
<glyph name="dehi-hb" format="2">
  <unicode hex="05AD"/>
  <note>
uni05AD
</note>
  <anchor x="75" y="0" name="_bottomleft"/>
  <outline>
    <contour>
      <point x="200" y="-240" type="curve"/>
      <point x="200" y="-191" type="line"/>
      <point x="138" y="-191"/>
      <point x="100" y="-157"/>
      <point x="100" y="-100" type="curve"/>
      <point x="50" y="-100" type="line"/>
      <point x="50" y="-188"/>
      <point x="105" y="-240"/>
    </contour>
  </outline>
</glyph>
<glyph name="masoracircle-hb" format="2">
  <unicode hex="05AF"/>
  <note>
uni05AF
</note>
  <anchor x="142" y="536" name="_top"/>
  <outline>
    <contour>
      <point x="142" y="650" type="curve" smooth="yes"/>
      <point x="194" y="650"/>
      <point x="234" y="691"/>
      <point x="234" y="742" type="curve" smooth="yes"/>
      <point x="234" y="793"/>
      <point x="193" y="834"/>
      <point x="142" y="834" type="curve" smooth="yes"/>
      <point x="91" y="834"/>
      <point x="50" y="793"/>
      <point x="50" y="742" type="curve" smooth="yes"/>
      <point x="50" y="691"/>
      <point x="90" y="650"/>
    </contour>
    <contour>
      <point x="142" y="693" type="curve" smooth="yes"/>
      <point x="115" y="693"/>
      <point x="93" y="715"/>
      <point x="93" y="742" type="curve" smooth="yes"/>
      <point x="93" y="769"/>
      <point x="116" y="791"/>
      <point x="142" y="791" type="curve" smooth="yes"/>
      <point x="168" y="791"/>
      <point x="191" y="769"/>
      <point x="191" y="742" type="curve" smooth="yes"/>
      <point x="191" y="715"/>
      <point x="169" y="693"/>
    </contour>
  </outline>
</glyph>
<glyph name="sheva-hb" format="2">
  <unicode hex="05B0"/>
  <note>
sheva
</note>
  <anchor x="86" y="0" name="_bottom"/>
  <outline>
    <contour>
      <point x="85" y="-145" type="curve" smooth="yes"/>
      <point x="105" y="-145"/>
      <point x="119" y="-133"/>
      <point x="119" y="-107" type="curve" smooth="yes"/>
      <point x="119" y="-82"/>
      <point x="105" y="-70"/>
      <point x="85" y="-70" type="curve" smooth="yes"/>
      <point x="65" y="-70"/>
      <point x="52" y="-82"/>
      <point x="52" y="-107" type="curve"/>
      <point x="52" y="-134"/>
      <point x="65" y="-145"/>
    </contour>
    <contour>
      <point x="84" y="-252" type="curve" smooth="yes"/>
      <point x="104" y="-252"/>
      <point x="118" y="-240"/>
      <point x="118" y="-214" type="curve" smooth="yes"/>
      <point x="118" y="-189"/>
      <point x="104" y="-177"/>
      <point x="84" y="-177" type="curve" smooth="yes"/>
      <point x="64" y="-177"/>
      <point x="50" y="-189"/>
      <point x="50" y="-214" type="curve"/>
      <point x="50" y="-241"/>
      <point x="64" y="-252"/>
    </contour>
  </outline>
</glyph>
<glyph name="hatafsegol-hb" format="2">
  <unicode hex="05B1"/>
  <note>
hatafsegol
</note>
  <anchor x="193" y="0" name="_bottom"/>
  <outline>
    <contour>
      <point x="303" y="-252" type="curve" smooth="yes"/>
      <point x="323" y="-252"/>
      <point x="337" y="-240"/>
      <point x="337" y="-214" type="curve" smooth="yes"/>
      <point x="337" y="-189"/>
      <point x="323" y="-177"/>
      <point x="303" y="-177" type="curve" smooth="yes"/>
      <point x="283" y="-177"/>
      <point x="269" y="-189"/>
      <point x="269" y="-214" type="curve"/>
      <point x="269" y="-241"/>
      <point x="283" y="-252"/>
    </contour>
    <contour>
      <point x="144" y="-252" type="curve" smooth="yes"/>
      <point x="164" y="-252"/>
      <point x="178" y="-240"/>
      <point x="178" y="-214" type="curve" smooth="yes"/>
      <point x="178" y="-189"/>
      <point x="164" y="-177"/>
      <point x="144" y="-177" type="curve" smooth="yes"/>
      <point x="124" y="-177"/>
      <point x="110" y="-189"/>
      <point x="110" y="-214" type="curve"/>
      <point x="110" y="-241"/>
      <point x="124" y="-252"/>
    </contour>
    <contour>
      <point x="83" y="-145" type="curve" smooth="yes"/>
      <point x="103" y="-145"/>
      <point x="117" y="-133"/>
      <point x="117" y="-107" type="curve" smooth="yes"/>
      <point x="117" y="-82"/>
      <point x="103" y="-70"/>
      <point x="83" y="-70" type="curve" smooth="yes"/>
      <point x="63" y="-70"/>
      <point x="50" y="-82"/>
      <point x="50" y="-107" type="curve"/>
      <point x="50" y="-134"/>
      <point x="63" y="-145"/>
    </contour>
    <contour>
      <point x="205" y="-145" type="curve" smooth="yes"/>
      <point x="225" y="-145"/>
      <point x="239" y="-133"/>
      <point x="239" y="-107" type="curve" smooth="yes"/>
      <point x="239" y="-82"/>
      <point x="225" y="-70"/>
      <point x="205" y="-70" type="curve" smooth="yes"/>
      <point x="185" y="-70"/>
      <point x="172" y="-82"/>
      <point x="172" y="-107" type="curve"/>
      <point x="172" y="-134"/>
      <point x="185" y="-145"/>
    </contour>
    <contour>
      <point x="302" y="-145" type="curve" smooth="yes"/>
      <point x="322" y="-145"/>
      <point x="336" y="-133"/>
      <point x="336" y="-107" type="curve" smooth="yes"/>
      <point x="336" y="-82"/>
      <point x="322" y="-70"/>
      <point x="302" y="-70" type="curve" smooth="yes"/>
      <point x="282" y="-70"/>
      <point x="269" y="-82"/>
      <point x="269" y="-107" type="curve"/>
      <point x="269" y="-134"/>
      <point x="282" y="-145"/>
    </contour>
  </outline>
</glyph>
<glyph name="hatafqamats-hb" format="2">
  <unicode hex="05B3"/>
  <note>
hatafqamats
</note>
  <anchor x="189" y="0" name="_bottom"/>
  <outline>
    <contour>
      <point x="116" y="-238" type="line"/>
      <point x="163" y="-238" type="line"/>
      <point x="163" y="-131" type="line"/>
      <point x="228" y="-131" type="line"/>
      <point x="228" y="-84" type="line"/>
      <point x="50" y="-84" type="line"/>
      <point x="50" y="-131" type="line"/>
      <point x="116" y="-131" type="line"/>
    </contour>
    <contour>
      <point x="293" y="-252" type="curve" smooth="yes"/>
      <point x="313" y="-252"/>
      <point x="327" y="-240"/>
      <point x="327" y="-214" type="curve" smooth="yes"/>
      <point x="327" y="-189"/>
      <point x="313" y="-177"/>
      <point x="293" y="-177" type="curve" smooth="yes"/>
      <point x="273" y="-177"/>
      <point x="259" y="-189"/>
      <point x="259" y="-214" type="curve" smooth="yes"/>
      <point x="259" y="-241"/>
      <point x="273" y="-252"/>
    </contour>
    <contour>
      <point x="294" y="-145" type="curve" smooth="yes"/>
      <point x="314" y="-145"/>
      <point x="328" y="-133"/>
      <point x="328" y="-107" type="curve" smooth="yes"/>
      <point x="328" y="-82"/>
      <point x="314" y="-70"/>
      <point x="294" y="-70" type="curve" smooth="yes"/>
      <point x="274" y="-70"/>
      <point x="261" y="-82"/>
      <point x="261" y="-107" type="curve" smooth="yes"/>
      <point x="261" y="-134"/>
      <point x="274" y="-145"/>
    </contour>
  </outline>
</glyph>
<glyph name="hiriq-hb" format="2">
  <unicode hex="05B4"/>
  <note>
hiriq
</note>
  <anchor x="84" y="0" name="_bottom"/>
  <outline>
    <contour>
      <point x="83" y="-145" type="curve" smooth="yes"/>
      <point x="103" y="-145"/>
      <point x="117" y="-133"/>
      <point x="117" y="-107" type="curve" smooth="yes"/>
      <point x="117" y="-82"/>
      <point x="103" y="-70"/>
      <point x="83" y="-70" type="curve" smooth="yes"/>
      <point x="63" y="-70"/>
      <point x="50" y="-82"/>
      <point x="50" y="-107" type="curve"/>
      <point x="50" y="-134"/>
      <point x="63" y="-145"/>
    </contour>
  </outline>
</glyph>
<glyph name="tsere-hb" format="2">
  <unicode hex="05B5"/>
  <note>
tsere
</note>
  <anchor x="145" y="0" name="_bottom"/>
  <outline>
    <contour>
      <point x="205" y="-145" type="curve" smooth="yes"/>
      <point x="225" y="-145"/>
      <point x="239" y="-133"/>
      <point x="239" y="-107" type="curve" smooth="yes"/>
      <point x="239" y="-82"/>
      <point x="225" y="-70"/>
      <point x="205" y="-70" type="curve" smooth="yes"/>
      <point x="185" y="-70"/>
      <point x="172" y="-82"/>
      <point x="172" y="-107" type="curve"/>
      <point x="172" y="-134"/>
      <point x="185" y="-145"/>
    </contour>
    <contour>
      <point x="83" y="-145" type="curve" smooth="yes"/>
      <point x="103" y="-145"/>
      <point x="117" y="-133"/>
      <point x="117" y="-107" type="curve" smooth="yes"/>
      <point x="117" y="-82"/>
      <point x="103" y="-70"/>
      <point x="83" y="-70" type="curve" smooth="yes"/>
      <point x="63" y="-70"/>
      <point x="50" y="-82"/>
      <point x="50" y="-107" type="curve"/>
      <point x="50" y="-134"/>
      <point x="63" y="-145"/>
    </contour>
  </outline>
</glyph>
<glyph name="segol-hb" format="2">
  <unicode hex="05B6"/>
  <note>
segol
</note>
  <anchor x="145" y="0" name="_bottom"/>
  <outline>
    <contour>
      <point x="205" y="-145" type="curve" smooth="yes"/>
      <point x="225" y="-145"/>
      <point x="239" y="-133"/>
      <point x="239" y="-107" type="curve" smooth="yes"/>
      <point x="239" y="-82"/>
      <point x="225" y="-70"/>
      <point x="205" y="-70" type="curve" smooth="yes"/>
      <point x="185" y="-70"/>
      <point x="172" y="-82"/>
      <point x="172" y="-107" type="curve"/>
      <point x="172" y="-134"/>
      <point x="185" y="-145"/>
    </contour>
    <contour>
      <point x="144" y="-252" type="curve" smooth="yes"/>
      <point x="164" y="-252"/>
      <point x="178" y="-240"/>
      <point x="178" y="-214" type="curve" smooth="yes"/>
      <point x="178" y="-189"/>
      <point x="164" y="-177"/>
      <point x="144" y="-177" type="curve" smooth="yes"/>
      <point x="124" y="-177"/>
      <point x="110" y="-189"/>
      <point x="110" y="-214" type="curve"/>
      <point x="110" y="-241"/>
      <point x="124" y="-252"/>
    </contour>
    <contour>
      <point x="83" y="-145" type="curve" smooth="yes"/>
      <point x="103" y="-145"/>
      <point x="117" y="-133"/>
      <point x="117" y="-107" type="curve" smooth="yes"/>
      <point x="117" y="-82"/>
      <point x="103" y="-70"/>
      <point x="83" y="-70" type="curve" smooth="yes"/>
      <point x="63" y="-70"/>
      <point x="50" y="-82"/>
      <point x="50" y="-107" type="curve"/>
      <point x="50" y="-134"/>
      <point x="63" y="-145"/>
    </contour>
  </outline>
</glyph>
<glyph name="qamats-hb" format="2">
  <unicode hex="05B8"/>
  <note>
qamats
</note>
  <anchor x="139" y="0" name="_bottom"/>
  <outline>
    <contour>
      <point x="116" y="-214" type="line"/>
      <point x="163" y="-214" type="line"/>
      <point x="163" y="-131" type="line"/>
      <point x="228" y="-131" type="line"/>
      <point x="228" y="-84" type="line"/>
      <point x="50" y="-84" type="line"/>
      <point x="50" y="-131" type="line"/>
      <point x="116" y="-131" type="line"/>
    </contour>
  </outline>
</glyph>
<glyph name="qubuts-hb" format="2">
  <unicode hex="05BB"/>
  <note>
qubuts
</note>
  <anchor x="165" y="0" name="_bottom"/>
  <outline>
    <contour>
      <point x="245" y="-252" type="curve" smooth="yes"/>
      <point x="265" y="-252"/>
      <point x="279" y="-240"/>
      <point x="279" y="-214" type="curve" smooth="yes"/>
      <point x="279" y="-189"/>
      <point x="265" y="-177"/>
      <point x="245" y="-177" type="curve" smooth="yes"/>
      <point x="225" y="-177"/>
      <point x="212" y="-189"/>
      <point x="212" y="-214" type="curve"/>
      <point x="212" y="-241"/>
      <point x="225" y="-252"/>
    </contour>
    <contour>
      <point x="83" y="-145" type="curve" smooth="yes"/>
      <point x="103" y="-145"/>
      <point x="117" y="-133"/>
      <point x="117" y="-107" type="curve" smooth="yes"/>
      <point x="117" y="-82"/>
      <point x="103" y="-70"/>
      <point x="83" y="-70" type="curve" smooth="yes"/>
      <point x="63" y="-70"/>
      <point x="50" y="-82"/>
      <point x="50" y="-107" type="curve"/>
      <point x="50" y="-134"/>
      <point x="63" y="-145"/>
    </contour>
    <contour>
      <point x="164" y="-199" type="curve" smooth="yes"/>
      <point x="184" y="-199"/>
      <point x="198" y="-187"/>
      <point x="198" y="-161" type="curve" smooth="yes"/>
      <point x="198" y="-136"/>
      <point x="184" y="-124"/>
      <point x="164" y="-124" type="curve" smooth="yes"/>
      <point x="144" y="-124"/>
      <point x="130" y="-136"/>
      <point x="130" y="-161" type="curve"/>
      <point x="130" y="-188"/>
      <point x="144" y="-199"/>
    </contour>
  </outline>
</glyph>
<glyph name="dagesh-hb" format="2">
  <unicode hex="05BC"/>
  <note>
dagesh
</note>
  <anchor x="84" y="300" name="_center"/>
  <outline>
    <contour>
      <point x="50" y="300" type="curve"/>
      <point x="50" y="273"/>
      <point x="63" y="262"/>
      <point x="83" y="262" type="curve" smooth="yes"/>
      <point x="103" y="262"/>
      <point x="117" y="274"/>
      <point x="117" y="300" type="curve" smooth="yes"/>
      <point x="117" y="325"/>
      <point x="103" y="337"/>
      <point x="83" y="337" type="curve" smooth="yes"/>
      <point x="63" y="337"/>
      <point x="50" y="325"/>
    </contour>
  </outline>
</glyph>
<glyph name="siluqleft-hb" format="2">
  <unicode hex="05BD"/>
  <note>
meteg
</note>
  <anchor x="74" y="0" name="_bottomleft"/>
  <outline>
    <contour>
      <point x="50" y="-252" type="line"/>
      <point x="97" y="-252" type="line"/>
      <point x="97" y="-70" type="line"/>
      <point x="50" y="-70" type="line"/>
    </contour>
  </outline>
</glyph>
<glyph name="paseq-hb" format="2">
  <advance width="551"/>
  <unicode hex="05C0"/>
  <note>
paseq
</note>
  <outline>
    <contour>
      <point x="239" y="760" type="line"/>
      <point x="239" y="-241" type="line"/>
      <point x="312" y="-241" type="line"/>
      <point x="312" y="760" type="line"/>
    </contour>
  </outline>
</glyph>
<glyph name="upperdot-hb" format="2">
  <unicode hex="05C4"/>
  <note>
upper_dot
</note>
  <anchor x="84" y="536" name="_top"/>
  <outline>
    <contour>
      <point x="83" y="660" type="curve" smooth="yes"/>
      <point x="103" y="660"/>
      <point x="117" y="672"/>
      <point x="117" y="698" type="curve" smooth="yes"/>
      <point x="117" y="723"/>
      <point x="103" y="735"/>
      <point x="83" y="735" type="curve" smooth="yes"/>
      <point x="63" y="735"/>
      <point x="50" y="723"/>
      <point x="50" y="698" type="curve" smooth="yes"/>
      <point x="50" y="671"/>
      <point x="63" y="660"/>
    </contour>
  </outline>
</glyph>
<glyph name="nunhafukha-hb" format="2">
  <advance width="407"/>
  <unicode hex="05C6"/>
  <note>
uni05C6
</note>
  <outline>
    <contour>
      <point x="90" y="0" type="line"/>
      <point x="367" y="0" type="line"/>
      <point x="367" y="83" type="line"/>
      <point x="180" y="83" type="line"/>
      <point x="180" y="445" type="line" smooth="yes"/>
      <point x="180" y="492"/>
      <point x="200" y="509"/>
      <point x="238" y="509" type="curve" smooth="yes"/>
      <point x="334" y="509" type="line"/>
      <point x="334" y="592" type="line"/>
      <point x="212" y="592" type="line" smooth="yes"/>
      <point x="142" y="592"/>
      <point x="90" y="555"/>
      <point x="90" y="456" type="curve" smooth="yes"/>
    </contour>
  </outline>
</glyph>
<glyph name="qamatsqatan-hb" format="2">
  <unicode hex="05C7"/>
  <note>
qamatsqatan
</note>
  <anchor x="119" y="0" name="_bottom"/>
  <outline>
    <contour>
      <point x="96" y="-194" type="line"/>
      <point x="143" y="-194" type="line"/>
      <point x="143" y="-131" type="line"/>
      <point x="188" y="-131" type="line"/>
      <point x="188" y="-84" type="line"/>
      <point x="50" y="-84" type="line"/>
      <point x="50" y="-131" type="line"/>
      <point x="96" y="-131" type="line"/>
    </contour>
  </outline>
</glyph>
<glyph name="alef-hb" format="2">
  <advance width="606"/>
  <unicode hex="05D0"/>
  <anchor x="298" y="0" name="bottom"/>
  <anchor x="101" y="0" name="bottomleft"/>
  <anchor x="250" y="158" name="center"/>
  <anchor x="304" y="536" name="top"/>
  <anchor x="47" y="536" name="topleft"/>
  <outline>
    <contour>
      <point x="450" y="0" type="line"/>
      <point x="556" y="0" type="line"/>
      <point x="397" y="234" type="line"/>
      <point x="156" y="592" type="line"/>
      <point x="50" y="592" type="line"/>
      <point x="193" y="382" type="line"/>
    </contour>
    <contour>
      <point x="56" y="0" type="line"/>
      <point x="146" y="0" type="line"/>
      <point x="146" y="164" type="line" smooth="yes"/>
      <point x="146" y="270"/>
      <point x="179" y="332"/>
      <point x="246" y="356" type="curve"/>
      <point x="219" y="423" type="line"/>
      <point x="117" y="390"/>
      <point x="56" y="307"/>
      <point x="56" y="158" type="curve" smooth="yes"/>
    </contour>
    <contour>
      <point x="385" y="184" type="line"/>
      <point x="484" y="218"/>
      <point x="542" y="301"/>
      <point x="542" y="446" type="curve" smooth="yes"/>
      <point x="542" y="592" type="line"/>
      <point x="452" y="592" type="line"/>
      <point x="452" y="440" type="line" smooth="yes"/>
      <point x="452" y="336"/>
      <point x="420" y="274"/>
      <point x="355" y="250" type="curve"/>
    </contour>
  </outline>
</glyph>
<glyph name="bet-hb" format="2">
  <advance width="542"/>
  <unicode hex="05D1"/>
  <anchor x="274" y="0" name="bottom"/>
  <anchor x="30" y="0" name="bottomleft"/>
  <anchor x="190" y="300" name="center"/>
  <anchor x="217" y="536" name="top"/>
  <anchor x="30" y="536" name="topleft"/>
  <outline>
    <contour>
      <point x="349" y="0" type="line"/>
      <point x="439" y="0" type="line"/>
      <point x="439" y="403" type="line" smooth="yes"/>
      <point x="439" y="535"/>
      <point x="374" y="592"/>
      <point x="238" y="592" type="curve" smooth="yes"/>
      <point x="30" y="592" type="line"/>
      <point x="30" y="509" type="line"/>
      <point x="232" y="509" type="line" smooth="yes"/>
      <point x="305" y="509"/>
      <point x="349" y="478"/>
      <point x="349" y="385" type="curve" smooth="yes"/>
    </contour>
    <contour>
      <point x="30" y="0" type="line"/>
      <point x="517" y="0" type="line"/>
      <point x="517" y="83" type="line"/>
      <point x="30" y="83" type="line"/>
    </contour>
  </outline>
</glyph>
<glyph name="gimel-hb" format="2">
  <advance width="347"/>
  <unicode hex="05D2"/>
  <anchor x="176" y="0" name="bottom"/>
  <anchor x="15" y="0" name="bottomleft"/>
  <anchor x="116" y="342" name="center"/>
  <anchor x="175" y="536" name="top"/>
  <anchor x="53" y="536" name="topleft"/>
  <outline>
    <contour>
      <point x="15" y="-10" type="line"/>
      <point x="72" y="13"/>
      <point x="156" y="67"/>
      <point x="211" y="164" type="curve"/>
      <point x="215" y="164" type="line"/>
      <point x="243" y="0" type="line"/>
      <point x="317" y="0" type="line"/>
      <point x="296" y="179" type="line"/>
      <point x="296" y="456" type="line" smooth="yes"/>
      <point x="296" y="555"/>
      <point x="245" y="592"/>
      <point x="175" y="592" type="curve" smooth="yes"/>
      <point x="53" y="592" type="line"/>
      <point x="53" y="509" type="line"/>
      <point x="149" y="509" type="line" smooth="yes"/>
      <point x="187" y="509"/>
      <point x="207" y="492"/>
      <point x="207" y="445" type="curve" smooth="yes"/>
      <point x="207" y="342" type="line" smooth="yes"/>
      <point x="207" y="281"/>
      <point x="184" y="220"/>
      <point x="142" y="171" type="curve" smooth="yes"/>
      <point x="110" y="134"/>
      <point x="67" y="104"/>
      <point x="15" y="86" type="curve"/>
    </contour>
  </outline>
</glyph>
<glyph name="dalet-hb" format="2">
  <advance width="523"/>
  <unicode hex="05D3"/>
  <anchor x="362" y="0" name="bottom"/>
  <anchor x="164" y="0" name="bottomleft"/>
  <anchor x="164" y="300" name="center"/>
  <anchor x="254" y="536" name="top"/>
  <anchor x="10" y="536" name="topleft"/>
  <outline>
    <contour>
      <point x="317" y="0" type="line"/>
      <point x="407" y="0" type="line"/>
      <point x="407" y="544" type="line"/>
      <point x="317" y="544" type="line"/>
    </contour>
    <contour>
      <point x="10" y="509" type="line"/>
      <point x="498" y="509" type="line"/>
      <point x="498" y="592" type="line"/>
      <point x="10" y="592" type="line"/>
    </contour>
  </outline>
</glyph>
<glyph name="he-hb" format="2">
  <advance width="652"/>
  <unicode hex="05D4"/>
  <anchor x="329" y="0" name="bottom"/>
  <anchor x="85" y="0" name="bottomleft"/>
  <anchor x="329" y="300" name="center"/>
  <anchor x="301" y="536" name="top"/>
  <anchor x="85" y="536" name="topleft"/>
  <outline>
    <contour>
      <point x="482" y="0" type="line"/>
      <point x="572" y="0" type="line"/>
      <point x="572" y="403" type="line" smooth="yes"/>
      <point x="572" y="535"/>
      <point x="507" y="592"/>
      <point x="371" y="592" type="curve" smooth="yes"/>
      <point x="85" y="592" type="line"/>
      <point x="85" y="509" type="line"/>
      <point x="365" y="509" type="line" smooth="yes"/>
      <point x="438" y="509"/>
      <point x="482" y="478"/>
      <point x="482" y="385" type="curve" smooth="yes"/>
    </contour>
    <contour>
      <point x="85" y="0" type="line"/>
      <point x="175" y="0" type="line"/>
      <point x="175" y="354" type="line"/>
      <point x="85" y="354" type="line"/>
    </contour>
  </outline>
</glyph>
<glyph name="zayin-hb" format="2">
  <advance width="300"/>
  <unicode hex="05D6"/>
  <anchor x="144" y="0" name="bottom"/>
  <anchor x="-10" y="0" name="bottomleft"/>
  <anchor x="-10" y="300" name="center"/>
  <anchor x="150" y="536" name="top"/>
  <anchor x="25" y="536" name="topleft"/>
  <outline>
    <contour>
      <point x="99" y="0" type="line"/>
      <point x="189" y="0" type="line"/>
      <point x="189" y="360" type="line" smooth="yes"/>
      <point x="189" y="465"/>
      <point x="256" y="503"/>
      <point x="275" y="516" type="curve"/>
      <point x="275" y="592" type="line"/>
      <point x="25" y="592" type="line"/>
      <point x="25" y="509" type="line"/>
      <point x="175" y="509" type="line"/>
      <point x="175" y="506" type="line"/>
      <point x="147" y="488"/>
      <point x="99" y="445"/>
      <point x="99" y="349" type="curve" smooth="yes"/>
    </contour>
  </outline>
</glyph>
<glyph name="het-hb" format="2">
  <advance width="672"/>
  <unicode hex="05D7"/>
  <anchor x="339" y="0" name="bottom"/>
  <anchor x="85" y="0" name="bottomleft"/>
  <anchor x="339" y="300" name="center"/>
  <anchor x="339" y="536" name="top"/>
  <anchor x="85" y="536" name="topleft"/>
  <outline>
    <contour>
      <point x="391" y="592" type="curve" smooth="yes"/>
      <point x="85" y="592" type="line"/>
      <point x="85" y="0" type="line"/>
      <point x="175" y="0" type="line"/>
      <point x="175" y="509" type="line"/>
      <point x="385" y="509" type="line" smooth="yes"/>
      <point x="458" y="509"/>
      <point x="502" y="478"/>
      <point x="502" y="385" type="curve" smooth="yes"/>
      <point x="502" y="0" type="line"/>
      <point x="592" y="0" type="line"/>
      <point x="592" y="403" type="line" smooth="yes"/>
      <point x="592" y="535"/>
      <point x="527" y="592"/>
    </contour>
  </outline>
</glyph>
<glyph name="tet-hb" format="2">
  <advance width="674"/>
  <unicode hex="05D8"/>
  <anchor x="350" y="0" name="bottom"/>
  <anchor x="85" y="0" name="bottomleft"/>
  <anchor x="347" y="300" name="center"/>
  <anchor x="347" y="536" name="top"/>
  <anchor x="75" y="536" name="topleft"/>
  <outline>
    <contour>
      <point x="345" y="-13" type="curve" smooth="yes"/>
      <point x="516" y="-13"/>
      <point x="624" y="98"/>
      <point x="624" y="296" type="curve" smooth="yes"/>
      <point x="624" y="466"/>
      <point x="609" y="602"/>
      <point x="444" y="602" type="curve" smooth="yes"/>
      <point x="389" y="602"/>
      <point x="344" y="584"/>
      <point x="319" y="572" type="curve"/>
      <point x="319" y="486" type="line"/>
      <point x="353" y="504"/>
      <point x="400" y="518"/>
      <point x="434" y="518" type="curve" smooth="yes"/>
      <point x="529" y="518"/>
      <point x="529" y="399"/>
      <point x="529" y="296" type="curve" smooth="yes"/>
      <point x="529" y="153"/>
      <point x="472" y="65"/>
      <point x="347" y="65" type="curve" smooth="yes"/>
      <point x="221" y="65"/>
      <point x="165" y="153"/>
      <point x="165" y="296" type="curve" smooth="yes"/>
      <point x="165" y="592" type="line"/>
      <point x="75" y="592" type="line"/>
      <point x="75" y="296" type="line" smooth="yes"/>
      <point x="75" y="72"/>
      <point x="180" y="-13"/>
    </contour>
  </outline>
</glyph>
<glyph name="yod-hb" format="2">
  <advance width="235"/>
  <unicode hex="05D9"/>
  <anchor x="120" y="0" name="bottom"/>
  <anchor x="-11" y="0" name="bottomleft"/>
  <anchor x="9" y="408" name="center"/>
  <anchor x="120" y="536" name="top"/>
  <anchor x="75" y="536" name="topleft"/>
  <outline>
    <contour>
      <point x="75" y="213" type="line"/>
      <point x="120" y="213" type="line"/>
      <point x="165" y="303" type="line"/>
      <point x="165" y="592" type="line"/>
      <point x="75" y="592" type="line"/>
    </contour>
  </outline>
</glyph>
<glyph name="finalkaf-hb" format="2">
  <advance width="545"/>
  <unicode hex="05DA"/>
  <anchor x="198" y="240" name="bottom"/>
  <anchor x="25" y="0" name="bottomleft"/>
  <anchor x="198" y="300" name="center"/>
  <anchor x="245" y="536" name="top"/>
  <anchor x="15" y="536" name="topleft"/>
  <outline>
    <contour>
      <point x="381" y="-240" type="line"/>
      <point x="475" y="-240" type="line"/>
      <point x="475" y="289" type="line" smooth="yes"/>
      <point x="475" y="520"/>
      <point x="339" y="592"/>
      <point x="162" y="592" type="curve" smooth="yes"/>
      <point x="15" y="592" type="line"/>
      <point x="15" y="509" type="line"/>
      <point x="150" y="509" type="line" smooth="yes"/>
      <point x="276" y="509"/>
      <point x="381" y="473"/>
      <point x="381" y="289" type="curve" smooth="yes"/>
    </contour>
  </outline>
</glyph>
<glyph name="kaf-hb" format="2">
  <advance width="540"/>
  <unicode hex="05DB"/>
  <anchor x="231" y="0" name="bottom"/>
  <anchor x="40" y="0" name="bottomleft"/>
  <anchor x="214" y="300" name="center"/>
  <anchor x="207" y="536" name="top"/>
  <anchor x="30" y="536" name="topleft"/>
  <outline>
    <contour>
      <point x="30" y="0" type="line"/>
      <point x="222" y="0" type="line" smooth="yes"/>
      <point x="397" y="0"/>
      <point x="490" y="130"/>
      <point x="490" y="299" type="curve" smooth="yes"/>
      <point x="490" y="472"/>
      <point x="392" y="592"/>
      <point x="207" y="592" type="curve" smooth="yes"/>
      <point x="30" y="592" type="line"/>
      <point x="30" y="509" type="line"/>
      <point x="197" y="509" type="line" smooth="yes"/>
      <point x="330" y="509"/>
      <point x="397" y="435"/>
      <point x="397" y="296" type="curve" smooth="yes"/>
      <point x="397" y="171"/>
      <point x="343" y="83"/>
      <point x="222" y="83" type="curve" smooth="yes"/>
      <point x="30" y="83" type="line"/>
    </contour>
  </outline>
</glyph>
<glyph name="lamed-hb" format="2">
  <advance width="510"/>
  <unicode hex="05DC"/>
  <anchor x="241" y="0" name="bottom"/>
  <anchor x="225" y="0" name="bottomleft"/>
  <anchor x="165" y="300" name="center"/>
  <anchor x="290" y="536" name="top"/>
  <anchor x="-47" y="536" name="topleft"/>
  <outline>
    <contour>
      <point x="105" y="592" type="line"/>
      <point x="105" y="760" type="line"/>
      <point x="15" y="760" type="line"/>
      <point x="15" y="509" type="line"/>
      <point x="381" y="509" type="line"/>
      <point x="193" y="0" type="line"/>
      <point x="288" y="0" type="line"/>
      <point x="475" y="524" type="line"/>
      <point x="475" y="592" type="line"/>
    </contour>
  </outline>
</glyph>
<glyph name="finalmem-hb" format="2">
  <advance width="652"/>
  <unicode hex="05DD"/>
  <anchor x="321" y="0" name="bottom"/>
  <anchor x="70" y="0" name="bottomleft"/>
  <anchor x="321" y="296" name="center"/>
  <anchor x="321" y="536" name="top"/>
  <anchor x="70" y="536" name="topleft"/>
  <outline>
    <contour>
      <point x="70" y="0" type="line"/>
      <point x="572" y="0" type="line"/>
      <point x="572" y="403" type="line" smooth="yes"/>
      <point x="572" y="535"/>
      <point x="507" y="592"/>
      <point x="371" y="592" type="curve" smooth="yes"/>
      <point x="70" y="592" type="line"/>
    </contour>
    <contour>
      <point x="160" y="83" type="line"/>
      <point x="160" y="509" type="line"/>
      <point x="365" y="509" type="line" smooth="yes"/>
      <point x="438" y="509"/>
      <point x="482" y="478"/>
      <point x="482" y="385" type="curve" smooth="yes"/>
      <point x="482" y="83" type="line"/>
    </contour>
  </outline>
</glyph>
<glyph name="mem-hb" format="2">
  <advance width="645"/>
  <unicode hex="05DE"/>
  <anchor x="325" y="0" name="bottom"/>
  <anchor x="95" y="0" name="bottomleft"/>
  <anchor x="325" y="300" name="center"/>
  <anchor x="346" y="536" name="top"/>
  <anchor x="50" y="536" name="topleft"/>
  <outline>
    <contour>
      <point x="350" y="604" type="curve" smooth="yes"/>
      <point x="248" y="604"/>
      <point x="200" y="558"/>
      <point x="165" y="508" type="curve"/>
      <point x="162" y="508" type="line"/>
      <point x="145" y="592" type="line"/>
      <point x="55" y="592" type="line"/>
      <point x="95" y="410" type="line"/>
      <point x="50" y="0" type="line"/>
      <point x="140" y="0" type="line"/>
      <point x="175" y="327" type="line" smooth="yes"/>
      <point x="188" y="449"/>
      <point x="239" y="525"/>
      <point x="344" y="525" type="curve" smooth="yes"/>
      <point x="434" y="525"/>
      <point x="475" y="470"/>
      <point x="475" y="387" type="curve" smooth="yes"/>
      <point x="475" y="83" type="line"/>
      <point x="305" y="83" type="line"/>
      <point x="305" y="0" type="line"/>
      <point x="565" y="0" type="line"/>
      <point x="565" y="401" type="line" smooth="yes"/>
      <point x="565" y="521"/>
      <point x="488" y="604"/>
    </contour>
  </outline>
</glyph>
<glyph name="finalnun-hb" format="2">
  <advance width="294"/>
  <unicode hex="05DF"/>
  <anchor x="20" y="0" name="bottomleft"/>
  <anchor x="60" y="300" name="center"/>
  <anchor x="117" y="536" name="top"/>
  <anchor x="20" y="536" name="topleft"/>
  <outline>
    <contour>
      <point x="124" y="-240" type="line"/>
      <point x="214" y="-240" type="line" smooth="yes"/>
      <point x="214" y="456" type="line" smooth="yes"/>
      <point x="214" y="555"/>
      <point x="162" y="592"/>
      <point x="92" y="592" type="curve" smooth="yes"/>
      <point x="20" y="592" type="line"/>
      <point x="20" y="509" type="line"/>
      <point x="66" y="509" type="line" smooth="yes"/>
      <point x="104" y="509"/>
      <point x="124" y="492"/>
      <point x="124" y="445" type="curve" smooth="yes"/>
    </contour>
  </outline>
</glyph>
<glyph name="nun-hb" format="2">
  <advance width="397"/>
  <unicode hex="05E0"/>
  <anchor x="184" y="0" name="bottom"/>
  <anchor x="7" y="0" name="bottomleft"/>
  <anchor x="124" y="300" name="center"/>
  <anchor x="184" y="536" name="top"/>
  <anchor x="63" y="536" name="topleft"/>
  <outline>
    <contour>
      <point x="30" y="0" type="line"/>
      <point x="317" y="0" type="line"/>
      <point x="317" y="456" type="line" smooth="yes"/>
      <point x="317" y="555"/>
      <point x="265" y="592"/>
      <point x="195" y="592" type="curve" smooth="yes"/>
      <point x="63" y="592" type="line"/>
      <point x="63" y="509" type="line"/>
      <point x="169" y="509" type="line" smooth="yes"/>
      <point x="207" y="509"/>
      <point x="227" y="492"/>
      <point x="227" y="445" type="curve" smooth="yes"/>
      <point x="227" y="83" type="line"/>
      <point x="30" y="83" type="line"/>
    </contour>
  </outline>
</glyph>
<glyph name="samekh-hb" format="2">
  <advance width="681"/>
  <unicode hex="05E1"/>
  <anchor x="357" y="0" name="bottom"/>
  <anchor x="79" y="0" name="bottomleft"/>
  <anchor x="355" y="300" name="center"/>
  <anchor x="355" y="536" name="top"/>
  <anchor x="35" y="536" name="topleft"/>
  <outline>
    <contour>
      <point x="356" y="-13" type="curve" smooth="yes"/>
      <point x="523" y="-13"/>
      <point x="631" y="101"/>
      <point x="631" y="292" type="curve" smooth="yes"/>
      <point x="631" y="473"/>
      <point x="535" y="592"/>
      <point x="351" y="592" type="curve" smooth="yes"/>
      <point x="35" y="592" type="line"/>
      <point x="35" y="509" type="line"/>
      <point x="109" y="509" type="line"/>
      <point x="94" y="450"/>
      <point x="79" y="374"/>
      <point x="79" y="299" type="curve" smooth="yes"/>
      <point x="79" y="92"/>
      <point x="195" y="-13"/>
    </contour>
    <contour>
      <point x="351" y="65" type="curve" smooth="yes"/>
      <point x="223" y="65"/>
      <point x="172" y="151"/>
      <point x="172" y="308" type="curve" smooth="yes"/>
      <point x="172" y="404"/>
      <point x="191" y="476"/>
      <point x="199" y="509" type="curve"/>
      <point x="335" y="509" type="line" smooth="yes"/>
      <point x="458" y="509"/>
      <point x="538" y="459"/>
      <point x="538" y="294" type="curve" smooth="yes"/>
      <point x="538" y="154"/>
      <point x="481" y="65"/>
    </contour>
  </outline>
</glyph>
<glyph name="ayin-hb" format="2">
  <advance width="608"/>
  <unicode hex="05E2"/>
  <anchor x="279" y="0" name="bottom"/>
  <anchor x="25" y="0" name="bottomleft"/>
  <anchor x="347" y="356" name="center"/>
  <anchor x="324" y="536" name="top"/>
  <anchor x="64" y="536" name="topleft"/>
  <outline>
    <contour>
      <point x="25" y="0" type="line"/>
      <point x="206" y="0" type="line" smooth="yes"/>
      <point x="493" y="0"/>
      <point x="543" y="205"/>
      <point x="556" y="355" type="curve" smooth="yes"/>
      <point x="578" y="592" type="line"/>
      <point x="488" y="592" type="line"/>
      <point x="466" y="355" type="line" smooth="yes"/>
      <point x="449" y="158"/>
      <point x="365" y="83"/>
      <point x="206" y="83" type="curve" smooth="yes"/>
      <point x="25" y="83" type="line"/>
    </contour>
    <contour>
      <point x="191" y="67" type="line"/>
      <point x="279" y="67" type="line"/>
      <point x="159" y="592" type="line"/>
      <point x="69" y="592" type="line"/>
    </contour>
  </outline>
</glyph>
<glyph name="finalpe-hb" format="2">
  <advance width="583"/>
  <unicode hex="05E3"/>
  <anchor x="10" y="0" name="bottomleft"/>
  <anchor x="325" y="256" name="center"/>
  <anchor x="262" y="536" name="top"/>
  <anchor x="10" y="536" name="topleft"/>
  <outline>
    <contour>
      <point x="423" y="-240" type="line"/>
      <point x="513" y="-240" type="line"/>
      <point x="513" y="299" type="line" smooth="yes"/>
      <point x="513" y="472"/>
      <point x="415" y="592"/>
      <point x="230" y="592" type="curve" smooth="yes"/>
      <point x="10" y="592" type="line"/>
      <point x="10" y="509" type="line"/>
      <point x="220" y="509" type="line" smooth="yes"/>
      <point x="355" y="509"/>
      <point x="423" y="435"/>
      <point x="423" y="296" type="curve" smooth="yes"/>
    </contour>
    <contour>
      <point x="181" y="213" type="curve" smooth="yes"/>
      <point x="194" y="213"/>
      <point x="211" y="214"/>
      <point x="226" y="216" type="curve"/>
      <point x="226" y="299" type="line"/>
      <point x="215" y="298"/>
      <point x="203" y="297"/>
      <point x="193" y="297" type="curve" smooth="yes"/>
      <point x="134" y="297"/>
      <point x="100" y="333"/>
      <point x="100" y="412" type="curve" smooth="yes"/>
      <point x="100" y="592" type="line"/>
      <point x="10" y="592" type="line"/>
      <point x="10" y="404" type="line" smooth="yes"/>
      <point x="10" y="289"/>
      <point x="63" y="213"/>
    </contour>
  </outline>
</glyph>
<glyph name="pe-hb" format="2">
  <advance width="603"/>
  <unicode hex="05E4"/>
  <anchor x="270" y="0" name="bottom"/>
  <anchor x="50" y="0" name="bottomleft"/>
  <anchor x="363" y="279" name="center"/>
  <anchor x="271" y="536" name="top"/>
  <anchor x="49" y="536" name="topleft"/>
  <outline>
    <contour>
      <point x="50" y="0" type="line"/>
      <point x="285" y="0" type="line" smooth="yes"/>
      <point x="460" y="0"/>
      <point x="553" y="130"/>
      <point x="553" y="299" type="curve" smooth="yes"/>
      <point x="553" y="472"/>
      <point x="455" y="592"/>
      <point x="270" y="592" type="curve" smooth="yes"/>
      <point x="87" y="592" type="line"/>
      <point x="87" y="509" type="line"/>
      <point x="260" y="509" type="line" smooth="yes"/>
      <point x="393" y="509"/>
      <point x="460" y="435"/>
      <point x="460" y="296" type="curve" smooth="yes"/>
      <point x="460" y="171"/>
      <point x="406" y="83"/>
      <point x="285" y="83" type="curve" smooth="yes"/>
      <point x="50" y="83" type="line"/>
    </contour>
    <contour>
      <point x="221" y="233" type="curve" smooth="yes"/>
      <point x="234" y="233"/>
      <point x="251" y="234"/>
      <point x="266" y="236" type="curve"/>
      <point x="266" y="319" type="line"/>
      <point x="255" y="318"/>
      <point x="243" y="317"/>
      <point x="233" y="317" type="curve" smooth="yes"/>
      <point x="174" y="317"/>
      <point x="140" y="353"/>
      <point x="140" y="432" type="curve" smooth="yes"/>
      <point x="140" y="592" type="line"/>
      <point x="50" y="592" type="line"/>
      <point x="50" y="424" type="line" smooth="yes"/>
      <point x="50" y="309"/>
      <point x="103" y="233"/>
    </contour>
  </outline>
</glyph>
<glyph name="finaltsadi-hb" format="2">
  <advance width="479"/>
  <unicode hex="05E5"/>
  <anchor x="6" y="0" name="bottomleft"/>
  <anchor x="260" y="444" name="center"/>
  <anchor x="240" y="536" name="top"/>
  <anchor x="6" y="536" name="topleft"/>
  <outline>
    <contour>
      <point x="136" y="-240" type="line"/>
      <point x="226" y="-240" type="line"/>
      <point x="226" y="230" type="line"/>
      <point x="100" y="592" type="line"/>
      <point x="5" y="592" type="line"/>
      <point x="136" y="239" type="line"/>
    </contour>
    <contour>
      <point x="197" y="165" type="line"/>
      <point x="287" y="192" type="line" smooth="yes"/>
      <point x="429" y="234"/>
      <point x="443" y="307"/>
      <point x="453" y="420" type="curve" smooth="yes"/>
      <point x="469" y="592" type="line"/>
      <point x="379" y="592" type="line"/>
      <point x="361" y="402" type="line" smooth="yes"/>
      <point x="354" y="327"/>
      <point x="329" y="289"/>
      <point x="274" y="272" type="curve" smooth="yes"/>
      <point x="190" y="246" type="line"/>
    </contour>
  </outline>
</glyph>
<glyph name="tsadi-hb" format="2">
  <advance width="559"/>
  <unicode hex="05E6"/>
  <anchor x="253" y="0" name="bottom"/>
  <anchor x="25" y="0" name="bottomleft"/>
  <anchor x="117" y="243" name="center"/>
  <anchor x="278" y="536" name="top"/>
  <anchor x="28" y="536" name="topleft"/>
  <outline>
    <contour>
      <point x="430" y="8" type="line"/>
      <point x="481" y="66" type="line"/>
      <point x="359" y="252" type="line"/>
      <point x="137" y="592" type="line"/>
      <point x="31" y="592" type="line"/>
    </contour>
    <contour>
      <point x="25" y="0" type="line"/>
      <point x="481" y="0" type="line"/>
      <point x="481" y="66" type="line"/>
      <point x="460" y="83" type="line"/>
      <point x="25" y="83" type="line"/>
    </contour>
    <contour>
      <point x="352" y="210" type="line"/>
      <point x="451" y="244"/>
      <point x="509" y="327"/>
      <point x="509" y="472" type="curve" smooth="yes"/>
      <point x="509" y="592" type="line"/>
      <point x="419" y="592" type="line"/>
      <point x="419" y="466" type="line" smooth="yes"/>
      <point x="419" y="362"/>
      <point x="387" y="300"/>
      <point x="322" y="276" type="curve"/>
    </contour>
  </outline>
</glyph>
<glyph name="qof-hb" format="2">
  <advance width="630"/>
  <unicode hex="05E7"/>
  <anchor x="361" y="0" name="bottom"/>
  <anchor x="36" y="0" name="bottomleft"/>
  <anchor x="293" y="300" name="center"/>
  <anchor x="338" y="536" name="top"/>
  <anchor x="79" y="536" name="topleft"/>
  <outline>
    <contour>
      <point x="313" y="0" type="line"/>
      <point x="408" y="0" type="line"/>
      <point x="595" y="524" type="line"/>
      <point x="595" y="592" type="line"/>
      <point x="80" y="592" type="line"/>
      <point x="80" y="509" type="line"/>
      <point x="501" y="509" type="line"/>
    </contour>
    <contour>
      <point x="80" y="-241" type="line"/>
      <point x="170" y="-241" type="line"/>
      <point x="170" y="362" type="line"/>
      <point x="80" y="362" type="line"/>
    </contour>
  </outline>
</glyph>
<glyph name="resh-hb" format="2">
  <advance width="542"/>
  <unicode hex="05E8"/>
  <anchor x="417" y="0" name="bottom"/>
  <anchor x="194" y="0" name="bottomleft"/>
  <anchor x="194" y="300" name="center"/>
  <anchor x="234" y="536" name="top"/>
  <anchor x="15" y="536" name="topleft"/>
  <outline>
    <contour>
      <point x="372" y="0" type="line"/>
      <point x="462" y="0" type="line"/>
      <point x="462" y="403" type="line" smooth="yes"/>
      <point x="462" y="535"/>
      <point x="397" y="592"/>
      <point x="261" y="592" type="curve" smooth="yes"/>
      <point x="15" y="592" type="line"/>
      <point x="15" y="509" type="line"/>
      <point x="255" y="509" type="line" smooth="yes"/>
      <point x="328" y="509"/>
      <point x="372" y="478"/>
      <point x="372" y="385" type="curve" smooth="yes"/>
    </contour>
  </outline>
</glyph>
<glyph name="shin-hb" format="2">
  <advance width="703"/>
  <unicode hex="05E9"/>
  <anchor x="338" y="0" name="bottom"/>
  <anchor x="92" y="0" name="bottomleft"/>
  <anchor x="412" y="217" name="center"/>
  <anchor x="372" y="536" name="top"/>
  <anchor x="85" y="536" name="topleft"/>
  <anchor x="628" y="536" name="topright"/>
  <outline>
    <contour>
      <point x="92" y="0" type="line"/>
      <point x="301" y="0" type="line" smooth="yes"/>
      <point x="578" y="0"/>
      <point x="640" y="227"/>
      <point x="651" y="355" type="curve" smooth="yes"/>
      <point x="673" y="592" type="line"/>
      <point x="583" y="592" type="line"/>
      <point x="561" y="355" type="line" smooth="yes"/>
      <point x="544" y="163"/>
      <point x="435" y="83"/>
      <point x="301" y="83" type="curve" smooth="yes"/>
      <point x="175" y="83" type="line"/>
      <point x="130" y="592" type="line"/>
      <point x="40" y="592" type="line"/>
    </contour>
    <contour>
      <point x="149" y="202" type="line"/>
      <point x="239" y="229" type="line" smooth="yes"/>
      <point x="381" y="271"/>
      <point x="395" y="344"/>
      <point x="405" y="457" type="curve" smooth="yes"/>
      <point x="417" y="592" type="line"/>
      <point x="327" y="592" type="line"/>
      <point x="313" y="439" type="line" smooth="yes"/>
      <point x="306" y="364"/>
      <point x="281" y="326"/>
      <point x="226" y="309" type="curve" smooth="yes"/>
      <point x="142" y="283" type="line"/>
    </contour>
  </outline>
</glyph>
<glyph name="tav-hb" format="2">
  <advance width="667"/>
  <unicode hex="05EA"/>
  <anchor x="362" y="0" name="bottom"/>
  <anchor x="35" y="0" name="bottomleft"/>
  <anchor x="362" y="300" name="center"/>
  <anchor x="326" y="536" name="top"/>
  <anchor x="39" y="536" name="topleft"/>
  <outline>
    <contour>
      <point x="497" y="0" type="line"/>
      <point x="587" y="0" type="line"/>
      <point x="587" y="403" type="line" smooth="yes"/>
      <point x="587" y="535"/>
      <point x="522" y="592"/>
      <point x="386" y="592" type="curve" smooth="yes"/>
      <point x="39" y="592" type="line"/>
      <point x="39" y="509" type="line"/>
      <point x="380" y="509" type="line" smooth="yes"/>
      <point x="453" y="509"/>
      <point x="497" y="478"/>
      <point x="497" y="385" type="curve" smooth="yes"/>
    </contour>
    <contour>
      <point x="35" y="0" type="line"/>
      <point x="76" y="0" type="line" smooth="yes"/>
      <point x="183" y="0"/>
      <point x="226" y="60"/>
      <point x="226" y="180" type="curve" smooth="yes"/>
      <point x="226" y="548" type="line"/>
      <point x="136" y="548" type="line"/>
      <point x="136" y="175" type="line" smooth="yes"/>
      <point x="136" y="113"/>
      <point x="117" y="83"/>
      <point x="81" y="83" type="curve" smooth="yes"/>
      <point x="35" y="83" type="line"/>
    </contour>
  </outline>
</glyph>
<glyph name="vavvav-hb" format="2">
  <advance width="560"/>
  <unicode hex="05F0"/>
  <note>
vavvav
</note>
  <anchor x="140" y="0" name="bottom"/>
  <anchor x="0" y="0" name="bottomleft"/>
  <anchor x="280" y="0" name="caret_1"/>
  <anchor x="0" y="300" name="center"/>
  <anchor x="140" y="536" name="top"/>
  <anchor x="122" y="536" name="topleft"/>
  <outline>
    <contour>
      <point x="375" y="0" type="line"/>
      <point x="465" y="0" type="line"/>
      <point x="465" y="592" type="line"/>
      <point x="375" y="592" type="line"/>
    </contour>
    <contour>
      <point x="95" y="0" type="line"/>
      <point x="185" y="0" type="line"/>
      <point x="185" y="592" type="line"/>
      <point x="95" y="592" type="line"/>
    </contour>
  </outline>
</glyph>
<glyph name="geresh-hb" format="2">
  <advance width="182"/>
  <unicode hex="05F3"/>
  <outline>
    <contour>
      <point x="12" y="347" type="curve"/>
      <point x="76" y="347" type="line"/>
      <point x="108" y="418"/>
      <point x="144" y="510"/>
      <point x="162" y="581" type="curve"/>
      <point x="155" y="592" type="line"/>
      <point x="61" y="592" type="line"/>
      <point x="51" y="522"/>
      <point x="31" y="422"/>
    </contour>
  </outline>
</glyph>
<glyph name="gershayim-hb" format="2">
  <advance width="367"/>
  <unicode hex="05F4"/>
  <outline>
    <contour>
      <point x="195" y="347" type="curve"/>
      <point x="261" y="347" type="line"/>
      <point x="293" y="418"/>
      <point x="329" y="510"/>
      <point x="347" y="581" type="curve"/>
      <point x="340" y="592" type="line"/>
      <point x="246" y="592" type="line"/>
      <point x="236" y="522"/>
      <point x="214" y="422"/>
    </contour>
    <contour>
      <point x="12" y="347" type="curve"/>
      <point x="76" y="347" type="line"/>
      <point x="108" y="418"/>
      <point x="144" y="510"/>
      <point x="162" y="581" type="curve"/>
      <point x="155" y="592" type="line"/>
      <point x="61" y="592" type="line"/>
      <point x="51" y="522"/>
      <point x="31" y="422"/>
    </contour>
  </outline>
</glyph>
<glyph name="sheqel" format="2">
  <advance width="790"/>
  <unicode hex="20AA"/>
  <note>
sheqel
</note>
  <outline>
    <contour>
      <point x="263" y="0" type="line"/>
      <point x="403" y="0" type="line" smooth="yes"/>
      <point x="639" y="0"/>
      <point x="710" y="75"/>
      <point x="710" y="307" type="curve" smooth="yes"/>
      <point x="710" y="592" type="line"/>
      <point x="620" y="592" type="line"/>
      <point x="620" y="307" type="line" smooth="yes"/>
      <point x="620" y="114"/>
      <point x="576" y="83"/>
      <point x="403" y="83" type="curve" smooth="yes"/>
      <point x="353" y="83" type="line"/>
      <point x="353" y="418" type="line"/>
      <point x="263" y="418" type="line"/>
    </contour>
    <contour>
      <point x="85" y="0" type="line"/>
      <point x="175" y="0" type="line"/>
      <point x="175" y="509" type="line"/>
      <point x="325" y="509" type="line" smooth="yes"/>
      <point x="398" y="509"/>
      <point x="442" y="478"/>
      <point x="442" y="385" type="curve" smooth="yes"/>
      <point x="442" y="184" type="line"/>
      <point x="532" y="184" type="line"/>
      <point x="532" y="403" type="line" smooth="yes"/>
      <point x="532" y="535"/>
      <point x="467" y="592"/>
      <point x="331" y="592" type="curve" smooth="yes"/>
      <point x="85" y="592" type="line"/>
    </contour>
  </outline>
</glyph>
<glyph name="ayinaltone-hb" format="2">
  <advance width="568"/>
  <unicode hex="FB20"/>
  <note>
alternativeayin
</note>
  <anchor x="304" y="0" name="bottom"/>
  <anchor x="14" y="0" name="bottomleft"/>
  <anchor x="299" y="536" name="top"/>
  <anchor x="58" y="536" name="topleft"/>
  <outline>
    <contour>
      <point x="15" y="-51" type="line"/>
      <point x="327" y="60" type="line" smooth="yes"/>
      <point x="478" y="114"/>
      <point x="501" y="195"/>
      <point x="516" y="355" type="curve" smooth="yes"/>
      <point x="538" y="592" type="line"/>
      <point x="448" y="592" type="line"/>
      <point x="426" y="355" type="line" smooth="yes"/>
      <point x="412" y="199"/>
      <point x="400" y="173"/>
      <point x="250" y="123" type="curve" smooth="yes"/>
      <point x="15" y="44" type="line"/>
    </contour>
    <contour>
      <point x="181" y="67" type="line"/>
      <point x="269" y="67" type="line"/>
      <point x="149" y="592" type="line"/>
      <point x="59" y="592" type="line"/>
    </contour>
  </outline>
</glyph>
<glyph name="widealef-hb" format="2">
  <advance width="725"/>
  <unicode hex="FB21"/>
  <note>
alefwide
</note>
  <outline>
    <contour>
      <point x="570" y="0" type="line"/>
      <point x="685" y="0" type="line"/>
      <point x="497" y="207" type="line"/>
      <point x="157" y="592" type="line"/>
      <point x="40" y="592" type="line"/>
      <point x="204" y="412" type="line"/>
    </contour>
    <contour>
      <point x="46" y="0" type="line"/>
      <point x="136" y="0" type="line"/>
      <point x="136" y="184" type="line" smooth="yes"/>
      <point x="136" y="290"/>
      <point x="169" y="352"/>
      <point x="236" y="376" type="curve"/>
      <point x="209" y="443" type="line"/>
      <point x="107" y="410"/>
      <point x="46" y="327"/>
      <point x="46" y="178" type="curve" smooth="yes"/>
    </contour>
    <contour>
      <point x="505" y="164" type="line"/>
      <point x="604" y="198"/>
      <point x="662" y="281"/>
      <point x="662" y="426" type="curve" smooth="yes"/>
      <point x="662" y="592" type="line"/>
      <point x="572" y="592" type="line"/>
      <point x="572" y="420" type="line" smooth="yes"/>
      <point x="572" y="316"/>
      <point x="540" y="254"/>
      <point x="475" y="230" type="curve"/>
    </contour>
  </outline>
</glyph>
<glyph name="widedalet-hb" format="2">
  <advance width="654"/>
  <unicode hex="FB22"/>
  <note>
daletwide
</note>
  <outline>
    <contour>
      <point x="443" y="0" type="line"/>
      <point x="533" y="0" type="line"/>
      <point x="533" y="525" type="line"/>
      <point x="443" y="525" type="line"/>
    </contour>
    <contour>
      <point x="6" y="509" type="line"/>
      <point x="624" y="509" type="line"/>
      <point x="624" y="592" type="line"/>
      <point x="6" y="592" type="line"/>
    </contour>
  </outline>
</glyph>
<glyph name="widehe-hb" format="2">
  <advance width="782"/>
  <unicode hex="FB23"/>
  <note>
hewide
</note>
  <outline>
    <contour>
      <point x="612" y="0" type="line"/>
      <point x="702" y="0" type="line"/>
      <point x="702" y="403" type="line" smooth="yes"/>
      <point x="702" y="535"/>
      <point x="637" y="592"/>
      <point x="501" y="592" type="curve" smooth="yes"/>
      <point x="85" y="592" type="line"/>
      <point x="85" y="509" type="line"/>
      <point x="495" y="509" type="line" smooth="yes"/>
      <point x="568" y="509"/>
      <point x="612" y="478"/>
      <point x="612" y="385" type="curve" smooth="yes"/>
    </contour>
    <contour>
      <point x="85" y="354" type="line"/>
      <point x="85" y="0" type="line"/>
      <point x="175" y="0" type="line"/>
      <point x="175" y="354" type="line"/>
    </contour>
  </outline>
</glyph>
<glyph name="widekaf-hb" format="2">
  <advance width="670"/>
  <unicode hex="FB24"/>
  <note>
kafwide
</note>
  <outline>
    <contour>
      <point x="30" y="0" type="line"/>
      <point x="352" y="0" type="line" smooth="yes"/>
      <point x="527" y="0"/>
      <point x="620" y="130"/>
      <point x="620" y="299" type="curve" smooth="yes"/>
      <point x="620" y="472"/>
      <point x="522" y="592"/>
      <point x="337" y="592" type="curve" smooth="yes"/>
      <point x="30" y="592" type="line"/>
      <point x="30" y="509" type="line"/>
      <point x="327" y="509" type="line" smooth="yes"/>
      <point x="460" y="509"/>
      <point x="527" y="435"/>
      <point x="527" y="296" type="curve" smooth="yes"/>
      <point x="527" y="171"/>
      <point x="473" y="83"/>
      <point x="352" y="83" type="curve" smooth="yes"/>
      <point x="30" y="83" type="line"/>
    </contour>
  </outline>
</glyph>
<glyph name="widelamed-hb" format="2">
  <advance width="620"/>
  <unicode hex="FB25"/>
  <note>
lamedwide
</note>
  <outline>
    <contour>
      <point x="303" y="0" type="line"/>
      <point x="398" y="0" type="line"/>
      <point x="585" y="524" type="line"/>
      <point x="585" y="592" type="line"/>
      <point x="95" y="592" type="line"/>
      <point x="95" y="760" type="line"/>
      <point x="5" y="760" type="line"/>
      <point x="5" y="509" type="line"/>
      <point x="491" y="509" type="line"/>
    </contour>
  </outline>
</glyph>
<glyph name="finalwidemem-hb" format="2">
  <advance width="782"/>
  <unicode hex="FB26"/>
  <note>
finalmemwide
</note>
  <outline>
    <contour>
      <point x="70" y="0" type="line"/>
      <point x="702" y="0" type="line"/>
      <point x="702" y="403" type="line" smooth="yes"/>
      <point x="702" y="535"/>
      <point x="637" y="592"/>
      <point x="501" y="592" type="curve" smooth="yes"/>
      <point x="70" y="592" type="line"/>
    </contour>
    <contour>
      <point x="160" y="83" type="line"/>
      <point x="160" y="509" type="line"/>
      <point x="495" y="509" type="line" smooth="yes"/>
      <point x="568" y="509"/>
      <point x="612" y="478"/>
      <point x="612" y="385" type="curve" smooth="yes"/>
      <point x="612" y="83" type="line"/>
    </contour>
  </outline>
</glyph>
<glyph name="wideresh-hb" format="2">
  <advance width="672"/>
  <unicode hex="FB27"/>
  <note>
reshwide
</note>
  <outline>
    <contour>
      <point x="502" y="0" type="line"/>
      <point x="592" y="0" type="line"/>
      <point x="592" y="403" type="line" smooth="yes"/>
      <point x="592" y="535"/>
      <point x="527" y="592"/>
      <point x="391" y="592" type="curve" smooth="yes"/>
      <point x="15" y="592" type="line"/>
      <point x="15" y="509" type="line"/>
      <point x="385" y="509" type="line" smooth="yes"/>
      <point x="458" y="509"/>
      <point x="502" y="478"/>
      <point x="502" y="385" type="curve" smooth="yes"/>
    </contour>
  </outline>
</glyph>
<glyph name="widetav-hb" format="2">
  <advance width="797"/>
  <unicode hex="FB28"/>
  <note>
tavwide
</note>
  <outline>
    <contour>
      <point x="627" y="0" type="line"/>
      <point x="717" y="0" type="line"/>
      <point x="717" y="403" type="line" smooth="yes"/>
      <point x="717" y="535"/>
      <point x="652" y="592"/>
      <point x="516" y="592" type="curve" smooth="yes"/>
      <point x="39" y="592" type="line"/>
      <point x="39" y="509" type="line"/>
      <point x="510" y="509" type="line" smooth="yes"/>
      <point x="583" y="509"/>
      <point x="627" y="478"/>
      <point x="627" y="385" type="curve" smooth="yes"/>
    </contour>
    <contour>
      <point x="35" y="0" type="line"/>
      <point x="76" y="0" type="line" smooth="yes"/>
      <point x="183" y="0"/>
      <point x="226" y="60"/>
      <point x="226" y="180" type="curve" smooth="yes"/>
      <point x="226" y="548" type="line"/>
      <point x="136" y="548" type="line"/>
      <point x="136" y="175" type="line" smooth="yes"/>
      <point x="136" y="113"/>
      <point x="117" y="83"/>
      <point x="81" y="83" type="curve" smooth="yes"/>
      <point x="35" y="83" type="line"/>
    </contour>
  </outline>
</glyph>
<glyph name="alternativeplus-hb" format="2">
  <advance width="572"/>
  <unicode hex="FB29"/>
  <note>
alt_plussign
</note>
  <outline>
    <contour>
      <point x="321" y="388" type="line"/>
      <point x="321" y="595" type="line"/>
      <point x="249" y="595" type="line"/>
      <point x="249" y="388" type="line"/>
      <point x="50" y="388" type="line"/>
      <point x="50" y="317" type="line"/>
      <point x="520" y="317" type="line"/>
      <point x="520" y="388" type="line"/>
    </contour>
  </outline>
</glyph>
<glyph name="aleflamed-hb" format="2">
  <advance width="593"/>
  <unicode hex="FB4F"/>
  <note>
aleflamed
</note>
  <anchor x="299" y="0" name="caret_1"/>
  <outline>
    <contour>
      <point x="447" y="0" type="line"/>
      <point x="553" y="0" type="line"/>
      <point x="153" y="592" type="line"/>
      <point x="47" y="592" type="line"/>
    </contour>
    <contour>
      <point x="10" y="509" type="line"/>
      <point x="138" y="509" type="line"/>
      <point x="138" y="592" type="line"/>
      <point x="10" y="592" type="line"/>
    </contour>
    <contour>
      <point x="10" y="546" type="line"/>
      <point x="100" y="546" type="line"/>
      <point x="100" y="760" type="line"/>
      <point x="10" y="760" type="line"/>
    </contour>
    <contour>
      <point x="382" y="184" type="line"/>
      <point x="481" y="218"/>
      <point x="539" y="301"/>
      <point x="539" y="446" type="curve" smooth="yes"/>
      <point x="539" y="592" type="line"/>
      <point x="449" y="592" type="line"/>
      <point x="449" y="440" type="line" smooth="yes"/>
      <point x="449" y="336"/>
      <point x="417" y="274"/>
      <point x="352" y="250" type="curve"/>
    </contour>
  </outline>
</glyph>
<glyph name="hatafqamats_zerowidthjoiner_siluqleft-hb" format="2">
  <anchor x="226" y="0" name="_bottom"/>
  <outline>
    <contour>
      <point x="116" y="-238" type="line"/>
      <point x="163" y="-238" type="line"/>
      <point x="163" y="-131" type="line"/>
      <point x="228" y="-131" type="line"/>
      <point x="228" y="-84" type="line"/>
      <point x="50" y="-84" type="line"/>
      <point x="50" y="-131" type="line"/>
      <point x="116" y="-131" type="line"/>
    </contour>
    <contour>
      <point x="258" y="-252" type="line"/>
      <point x="305" y="-252" type="line"/>
      <point x="305" y="-70" type="line"/>
      <point x="258" y="-70" type="line"/>
    </contour>
    <contour>
      <point x="369" y="-252" type="curve" smooth="yes"/>
      <point x="389" y="-252"/>
      <point x="403" y="-240"/>
      <point x="403" y="-214" type="curve" smooth="yes"/>
      <point x="403" y="-189"/>
      <point x="389" y="-177"/>
      <point x="369" y="-177" type="curve" smooth="yes"/>
      <point x="349" y="-177"/>
      <point x="335" y="-189"/>
      <point x="335" y="-214" type="curve" smooth="yes"/>
      <point x="335" y="-241"/>
      <point x="349" y="-252"/>
    </contour>
    <contour>
      <point x="368" y="-145" type="curve" smooth="yes"/>
      <point x="388" y="-145"/>
      <point x="402" y="-133"/>
      <point x="402" y="-107" type="curve" smooth="yes"/>
      <point x="402" y="-82"/>
      <point x="388" y="-70"/>
      <point x="368" y="-70" type="curve" smooth="yes"/>
      <point x="348" y="-70"/>
      <point x="335" y="-82"/>
      <point x="335" y="-107" type="curve" smooth="yes"/>
      <point x="335" y="-134"/>
      <point x="348" y="-145"/>
    </contour>
  </outline>
</glyph>
<glyph name="hatafsegol_zerowidthjoiner_siluqleft-hb" format="2">
  <anchor x="232" y="0" name="_bottom"/>
  <outline>
    <contour>
      <point x="269" y="-252" type="line"/>
      <point x="316" y="-252" type="line"/>
      <point x="316" y="-70" type="line"/>
      <point x="269" y="-70" type="line"/>
    </contour>
    <contour>
      <point x="144" y="-252" type="curve" smooth="yes"/>
      <point x="164" y="-252"/>
      <point x="178" y="-240"/>
      <point x="178" y="-214" type="curve" smooth="yes"/>
      <point x="178" y="-189"/>
      <point x="164" y="-177"/>
      <point x="144" y="-177" type="curve" smooth="yes"/>
      <point x="124" y="-177"/>
      <point x="110" y="-189"/>
      <point x="110" y="-214" type="curve"/>
      <point x="110" y="-241"/>
      <point x="124" y="-252"/>
    </contour>
    <contour>
      <point x="83" y="-145" type="curve" smooth="yes"/>
      <point x="103" y="-145"/>
      <point x="117" y="-133"/>
      <point x="117" y="-107" type="curve" smooth="yes"/>
      <point x="117" y="-82"/>
      <point x="103" y="-70"/>
      <point x="83" y="-70" type="curve" smooth="yes"/>
      <point x="63" y="-70"/>
      <point x="50" y="-82"/>
      <point x="50" y="-107" type="curve"/>
      <point x="50" y="-134"/>
      <point x="63" y="-145"/>
    </contour>
    <contour>
      <point x="205" y="-145" type="curve" smooth="yes"/>
      <point x="225" y="-145"/>
      <point x="239" y="-133"/>
      <point x="239" y="-107" type="curve" smooth="yes"/>
      <point x="239" y="-82"/>
      <point x="225" y="-70"/>
      <point x="205" y="-70" type="curve" smooth="yes"/>
      <point x="185" y="-70"/>
      <point x="172" y="-82"/>
      <point x="172" y="-107" type="curve"/>
      <point x="172" y="-134"/>
      <point x="185" y="-145"/>
    </contour>
    <contour>
      <point x="380" y="-252" type="curve" smooth="yes"/>
      <point x="400" y="-252"/>
      <point x="414" y="-240"/>
      <point x="414" y="-214" type="curve" smooth="yes"/>
      <point x="414" y="-189"/>
      <point x="400" y="-177"/>
      <point x="380" y="-177" type="curve" smooth="yes"/>
      <point x="360" y="-177"/>
      <point x="346" y="-189"/>
      <point x="346" y="-214" type="curve"/>
      <point x="346" y="-241"/>
      <point x="360" y="-252"/>
    </contour>
    <contour>
      <point x="379" y="-145" type="curve" smooth="yes"/>
      <point x="399" y="-145"/>
      <point x="413" y="-133"/>
      <point x="413" y="-107" type="curve" smooth="yes"/>
      <point x="413" y="-82"/>
      <point x="399" y="-70"/>
      <point x="379" y="-70" type="curve" smooth="yes"/>
      <point x="359" y="-70"/>
      <point x="346" y="-82"/>
      <point x="346" y="-107" type="curve"/>
      <point x="346" y="-134"/>
      <point x="359" y="-145"/>
    </contour>
  </outline>
</glyph>
